# xmcd
#
# Track frame offsets:
#	150
#	16115
#	30215
#	47580
#	68205
#	83210
#	101617
#	117952
#	133675
#	150852
#	167655
#	184872
#	199327
#	231257
#	278367
#
# Disc length: 4139 seconds
#
# Revision: 0
# Processed by: cddbd v1.4PL0 Copyright (c) Steve Scherf et al.
# Submitted via: dBpowerAMP V4.0
#
DISCID=b510290f
DTITLE=Grupo del Cuareim - Candombe
DYEAR=1900
DGENRE=
TTITLE0=Lonjas de Cuareim
TTITLE1=Biricunyamba
TTITLE2=Baile de los morenos
TTITLE3=Yo También
TTITLE4=Candombe para Figari
TTITLE5=Todos
TTITLE6=Yo Volveré Por Tí
TTITLE7=EEE Lumbé Pique y Repique
TTITLE8=Camino Verde
TTITLE9=Ayer te Ví
TTITLE10=Palo y Tamboril
TTITLE11=Solo He De Quedar
TTITLE12=Mejor Me Voy
TTITLE13=Mucho/Rey Tambor
TTITLE14=U
EXTD=Disco de Candombe del Uruguay
EXTT0=
EXTT1=
EXTT2=
EXTT3=
EXTT4=
EXTT5=
EXTT6=
EXTT7=
EXTT8=
EXTT9=
EXTT10=
EXTT11=
EXTT12=
EXTT13=
EXTT14=
PLAYORDER=
